<mxfile host="app.diagrams.net" modified="2024-01-23T14:05:19.587Z" agent="Mozilla/5.0 (Windows NT 10.0; Win64; x64) AppleWebKit/537.36 (KHTML, like Gecko) Chrome/120.0.0.0 Safari/537.36" version="22.1.18" etag="aIv4Bb0MAiEa9ln_pkD5" type="github">
  <diagram name="PÃ¡gina-1" id="tpw0jocXbcBVCGiLT--g">
    <mxGraphModel>
      <root>
        <mxCell id="0" />
        <mxCell id="1" parent="0" />
      </root>
    </mxGraphModel>
  </diagram>
</mxfile>
